<?xml version="1.0" encoding="utf-8"?>
<!-- Generator: Adobe Illustrator 25.0.1, SVG Export Plug-In . SVG Version: 6.00 Build 0)  -->
<svg version="1.1" id="Layer_1" xmlns="http://www.w3.org/2000/svg" xmlns:xlink="http://www.w3.org/1999/xlink" x="0px" y="0px"
	 viewBox="0 0 488.4 197" style="enable-background:new 0 0 488.4 197;" xml:space="preserve">
<style type="text/css">
	.st0{fill:#252422;}
	.st1{fill:#FF5A39;}
</style>
<path class="st0" d="M311.5,15.1C293.9,5.7,266.4,0,239.2,0c-27,0-54.3,5.6-71.9,14.9c-21.5,11.5-31.6,36.9-24,60.3
	C160,126.5,207.7,197,239.2,197c31.5,0.1,79.5-70.9,96.1-122.1C342.8,51.8,332.8,26.5,311.5,15.1z"/>
<polygon class="st1" points="239.3,106.8 215.9,119.1 220.3,93.1 201.4,74.6 227.6,70.8 239.3,47.1 251,70.8 277.2,74.6 258.2,93.1 
	262.7,119.1 "/>
<path class="st0" d="M480,178.4c-4.5,3.7-10.9,6.8-19.2,9.4c-8.3,2.5-18.5,3.2-30.6,2.1c-17.2-1.6-30.7-8.7-40.4-21.3
	c-9.7-12.6-13.7-28.1-11.9-46.5l0.4-4.4c1.8-19.1,8.6-34.1,20.4-45.1c11.8-11,26.3-15.6,43.4-14c10,1,19,3.4,26.9,7.4
	c8,4,14.4,8.9,19.4,14.9l-2.4,25.7l-18.9-1.8l-2-17.4c-2.2-2.2-5.1-4.1-8.8-5.7s-8-2.6-13-3c-11.2-1.1-20.2,2.2-27.2,9.9
	c-7,7.6-11.1,18.1-12.4,31.4l-0.4,4.6c-1.2,13,0.8,23.6,6.2,31.9c5.3,8.3,13.7,13,25.2,14.1c5.1,0.5,9.3,0.4,12.6-0.1
	c3.3-0.6,5.9-1.4,7.8-2.4l2.1-21.6l-18.1-3.1l1.7-18l43.9,4.2L480,178.4z"/>
<path class="st0" d="M93.8,96.2L74.6,98l-5-17.2c-2.4-1.2-5.7-2.1-10.1-2.8c-4.4-0.7-8.9-0.8-13.7-0.3c-7,0.7-12.3,2.6-15.8,5.9
	c-3.6,3.3-5.1,7.3-4.7,12c0.4,4.3,2.7,7.7,7,10.1s11.4,4.7,21.5,6.9c14.4,2.6,25.6,6.8,33.5,12.5s12.3,13.8,13.3,24.3
	c1,10.9-2.5,19.9-10.5,27.1c-8.1,7.1-19.1,11.3-33.3,12.7c-10.1,0.9-19.4,0.2-27.8-2.3c-8.4-2.4-15.6-6.2-21.6-11.4l-2.5-26.6
	l19.8-1.9l4.4,17.9c2.8,1.9,6.4,3.3,11,4.2c4.5,1,9.5,1.2,15,0.7c7-0.7,12.2-2.6,15.6-5.8c3.4-3.2,4.8-7.2,4.4-12
	c-0.5-4.9-2.6-8.7-6.3-11.3c-3.8-2.6-10.1-4.9-19-6.7c-15.5-3-27.5-7.1-35.8-12.4S1,108.4,0,98c-1-10.3,2.6-19.2,10.8-26.6
	c8.1-7.4,18.8-11.8,32.1-13.2c9.8-0.9,18.9-0.3,27.2,2c8.3,2.2,15.5,5.6,21.4,10L93.8,96.2z"/>
</svg>
